HIERARCHY
ROOT Hips
{
	OFFSET -3.958830 18.904000 13.208200
	CHANNELS 6 Xposition Yposition Zposition Zrotation Yrotation Xrotation 
	JOINT LHipJoint
	{
		OFFSET 0.000000 0.000000 0.000000
		CHANNELS 3 Zrotation Yrotation Xrotation
		JOINT LeftUpLeg
		{
			OFFSET 1.800000 -1.400000 0.085000
			CHANNELS 3 Zrotation Yrotation Xrotation
			JOINT LeftLeg
			{
				OFFSET 2.215000 -6.000000 0.000000
				CHANNELS 3 Zrotation Yrotation Xrotation
				JOINT LeftFoot
				{
					OFFSET 2.500000 -6.900000 0.000000
					CHANNELS 3 Zrotation Yrotation Xrotation
					JOINT LeftToeBase
					{
						OFFSET 0.200000 -0.500000 1.950000
						CHANNELS 3 Zrotation Yrotation Xrotation
						End Site
						{
							OFFSET 0.000000 0.000000 0.000000
						}
					}
				}
			}
		}
	}
	JOINT RHipJoint
	{
		OFFSET 0.000000 0.000000 0.000000
		CHANNELS 3 Zrotation Yrotation Xrotation
		JOINT RightUpLeg
		{
			OFFSET -1.800000 -1.400000 0.085000
			CHANNELS 3 Zrotation Yrotation Xrotation
			JOINT RightLeg
			{
				OFFSET -2.215000 -6.000000 0.000000
				CHANNELS 3 Zrotation Yrotation Xrotation
				JOINT RightFoot
				{
					OFFSET -2.500000 -6.900000 0.000000
					CHANNELS 3 Zrotation Yrotation Xrotation
					JOINT RightToeBase
					{
						OFFSET -0.200000 -0.500000 1.950000
						CHANNELS 3 Zrotation Yrotation Xrotation
						End Site
						{
							OFFSET 0.000000 0.000000 0.000000
						}
					}
				}
			}
		}
	}
	JOINT LowerBack
	{
		OFFSET 0.000000 0.000000 0.000000
		CHANNELS 3 Zrotation Yrotation Xrotation
		JOINT Spine
		{
			OFFSET -0.087000 1.940000 -0.288900
			CHANNELS 3 Zrotation Yrotation Xrotation
			JOINT Spine1
			{
				OFFSET 0.000000 1.950000 0.060000
				CHANNELS 3 Zrotation Yrotation Xrotation
				JOINT Neck
				{
					OFFSET 0.000000 0.000000 0.000000
					CHANNELS 3 Zrotation Yrotation Xrotation
					JOINT Neck1
					{
						OFFSET 0.000000 1.600000 0.340000
						CHANNELS 3 Zrotation Yrotation Xrotation
						JOINT Head
						{
							OFFSET 0.000000 1.667000 -0.240000
							CHANNELS 3 Zrotation Yrotation Xrotation
							End Site
							{
								OFFSET 0.000000 0.000000 0.000000
							}
						}
					}
				}
				JOINT LeftShoulder
				{
					OFFSET 0.000000 0.000000 0.000000
					CHANNELS 3 Zrotation Yrotation Xrotation
					JOINT LeftArm
					{
						OFFSET 2.700000 1.550000 -0.730000
						CHANNELS 3 Zrotation Yrotation Xrotation
						JOINT LeftForeArm
						{
							OFFSET 5.450000 0.000000 0.000000
							CHANNELS 3 Zrotation Yrotation Xrotation
							JOINT LeftHand
							{
								OFFSET 3.450000 0.000000 0.000000
								CHANNELS 3 Zrotation Yrotation Xrotation
								JOINT LeftHandIndex1
								{
									OFFSET 0.750000 0.000000 0.000000
									CHANNELS 3 Zrotation Yrotation Xrotation
									End Site
									{
										OFFSET 0.000000 0.000000 0.000000
									}
								}
							}
						}
					}
				}
				JOINT RightShoulder
				{
					OFFSET 0.000000 0.000000 0.000000
					CHANNELS 3 Zrotation Yrotation Xrotation
					JOINT RightArm
					{
						OFFSET -2.700000 1.550000 -0.730000
						CHANNELS 3 Zrotation Yrotation Xrotation
						JOINT RightForeArm
						{
							OFFSET -5.450000 0.000000 0.000000
							CHANNELS 3 Zrotation Yrotation Xrotation
							JOINT RightHand
							{
								OFFSET -3.450000 0.000000 0.000000
								CHANNELS 3 Zrotation Yrotation Xrotation
								JOINT RightHandIndex1
								{
									OFFSET -0.750000 0.000000 0.000000
									CHANNELS 3 Zrotation Yrotation Xrotation
									End Site
									{
										OFFSET 0.000000 0.000000 0.000000
									}
								}
							}
						}
					}
				}
			}
		}
	}
}
MOTION
Frames: 9
Frame Time: 0.016667
1.010460 16.889070 -5.089510 -7.626587 -46.699750 14.618059 -15.319611 13.173097 3.542905 -2.865959 -4.071555 -19.514698 -12.135656 5.842384 11.457526 -0.415495 3.993894 3.466033 0.450550 0.290690 0.062620 18.241751 -10.719196 2.124118 -0.182601 -0.720851 -0.703694 -2.388433 -4.901358 27.838774 -0.545313 -5.386491 2.757411 0.327220 0.752990 0.328060 -3.343215 -2.791679 -6.211726 1.889895 0.377904 1.803370 -4.229360 0.896424 -0.256029 -1.576153 -11.096526 -5.054348 -22.631056 23.543529 14.467407 2.396630 14.400560 -2.234110 -14.295147 13.392580 -0.981884 -50.926895 3.314934 -5.393797 -31.495459 -26.210569 4.407236 -4.132712 3.348002 0.094090 0.531670 -0.290680 0.441200 17.441611 -5.537938 1.674917 32.682295 -13.400012 -6.844918 -44.599927 -1.459434 2.332116 2.413784 -2.143665 -0.198500 0.311150 -0.043330 -0.003740 
1.023010 16.894030 -5.096370 -7.443609 -47.069843 13.942727 -15.319497 13.186042 3.547655 -2.580895 -4.130321 -19.590695 -12.495341 6.167684 12.618201 -0.394227 4.110535 3.400247 0.472500 0.305070 0.089900 18.235588 -10.698230 2.174904 0.302958 -0.748514 -0.493736 -2.216636 -4.990441 28.137217 -0.585595 -5.397627 2.742601 0.321340 0.702770 0.322800 -3.319743 -2.823925 -6.277389 1.632015 0.405820 2.397904 -4.853677 0.983309 -0.425268 -1.321735 -11.187671 -5.221531 -23.017501 23.459272 15.319682 2.565490 14.338350 -3.064990 -14.941751 13.078880 -1.131219 -48.734263 3.417930 -5.191329 -33.727243 -27.170439 5.240947 -4.070274 3.377077 0.141080 0.484100 -0.252000 0.433670 17.550058 -5.297535 1.967701 32.442241 -14.405000 -7.153776 -45.072045 0.096517 1.793564 2.407072 -2.124053 -0.189180 0.302680 -0.055370 -0.016900 
1.048960 16.890510 -5.105950 -6.822594 -47.404378 12.504280 -15.333888 13.194133 3.584010 -2.319460 -4.350173 -19.749477 -13.350276 6.850002 14.885971 -0.341672 4.371074 3.271497 0.537090 0.365460 0.165190 18.214224 -10.638311 2.256153 0.905906 -0.871739 0.100781 -1.574550 -5.206296 27.868979 -0.660032 -5.342601 2.747220 0.330940 0.603280 0.299240 -3.232746 -2.914418 -6.413943 0.704635 0.421932 3.551462 -5.405083 1.102317 -0.637531 -1.047388 -11.201729 -5.424142 -23.381422 23.094156 17.005252 3.000380 13.964500 -5.453850 -15.302781 12.863529 -1.339155 -45.844410 3.272632 -4.670357 -37.784891 -28.505574 6.792202 -3.946736 3.394360 0.232720 0.385690 -0.166140 0.429490 17.345711 -5.169101 2.263439 31.593959 -15.389336 -7.414930 -44.700895 2.501995 0.915667 2.404710 -2.059020 -0.173610 0.314190 -0.098720 -0.039910 
1.087520 16.898530 -5.118430 -6.807639 -47.680284 11.208430 -15.326838 13.134786 3.626703 -1.393964 -4.671859 -20.069412 -14.767793 7.956991 18.083763 -0.216635 4.857352 3.048091 0.580080 0.404650 0.229210 18.217463 -10.551743 2.414819 2.158996 -1.105913 0.839595 -0.230307 -5.553598 26.528477 -0.722317 -5.228510 2.775968 0.313770 0.494890 0.288580 -3.232743 -2.902309 -6.639226 0.804426 0.418869 5.274740 -6.693282 1.239369 -0.998964 -0.420054 -11.183376 -5.738723 -23.928880 22.807061 19.519075 3.021940 13.947080 -7.276890 -16.694465 12.138686 -1.768067 -42.044916 2.824280 -4.104694 -40.954877 -30.713655 8.650333 -3.839612 3.426663 0.304440 0.295110 -0.082450 0.410930 17.370074 -4.798390 2.822349 30.132800 -16.673413 -7.482043 -43.210294 5.144771 0.006878 2.411723 -1.983650 -0.136890 0.292890 -0.132570 -0.060800 
1.144270 16.900340 -5.131890 -6.389624 -48.186395 9.615914 -15.307618 13.064423 3.731054 -0.927206 -5.165031 -20.667386 -15.713318 8.853399 20.904334 -0.125287 5.267556 2.864873 0.633630 0.459070 0.291350 18.220849 -10.524812 2.531632 2.793639 -1.244477 1.274864 0.762570 -5.784893 25.428383 -0.781449 -5.113480 2.805832 0.315370 0.393090 0.268540 -3.247175 -2.821775 -6.897557 0.659885 0.605157 7.490156 -8.036556 1.587094 -1.669976 0.176281 -11.098477 -6.084877 -24.339086 22.259002 21.915271 3.108320 13.508740 -9.743630 -17.710856 11.479798 -2.311241 -38.199941 1.713956 -3.123218 -44.953480 -32.995267 11.123726 -3.725319 3.444881 0.389970 0.201490 0.003190 0.407180 17.090030 -4.477482 3.393951 27.987276 -17.754972 -7.165812 -40.298674 7.406782 -0.607993 2.410792 -1.890655 -0.116880 0.293200 -0.175030 -0.080370 
1.202540 16.901270 -5.149320 -5.830990 -49.029011 8.104649 -15.299432 12.922003 3.882298 -0.204046 -5.940365 -22.008060 -16.860830 9.894377 23.953003 -0.046640 5.834887 2.635749 0.668540 0.475690 0.350400 18.231086 -10.482074 2.598338 3.361246 -1.322959 1.508364 1.162254 -5.782340 24.334206 -0.808683 -4.994594 2.823501 0.320260 0.333730 0.264100 -3.318917 -2.708113 -7.100008 0.547085 0.444611 9.332453 -9.609291 1.626478 -1.721621 0.562858 -11.148998 -6.489021 -24.844662 22.252974 23.012081 2.869620 13.402730 -11.549330 -17.996779 10.668664 -2.384933 -35.333683 1.360034 -2.766766 -48.322304 -35.814460 13.560043 -3.670077 3.464369 0.453620 0.148520 0.048610 0.389680 16.505643 -3.879053 3.742974 25.851760 -17.892789 -6.891972 -39.313021 8.643136 -0.951852 2.397624 -1.847485 -0.118110 0.297830 -0.187370 -0.109790 
1.268060 16.885390 -5.179840 -5.250049 -49.849856 6.631668 -15.330056 12.545289 4.228114 2.262564 -7.334914 -25.135042 -20.328444 12.226666 28.385329 0.146279 7.086441 2.163526 0.721670 0.523970 0.418340 18.242188 -10.367643 2.583062 4.088779 -1.431498 1.804283 0.935839 -5.636789 23.813997 -0.836273 -4.947524 2.813929 0.363290 0.291700 0.267050 -3.429426 -2.457522 -7.348986 0.499629 0.511430 11.209457 -11.150359 1.978268 -1.399789 0.750401 -11.066682 -6.316323 -24.497533 22.027841 23.421537 2.091110 13.292820 -13.295830 -18.856697 10.090970 -3.138803 -31.749895 -0.397702 -1.842290 -52.001051 -38.248162 16.452247 -3.660437 3.489100 0.483530 0.129990 0.075720 0.375990 16.684439 -3.699803 4.043304 22.351093 -18.208541 -5.916225 -35.408240 10.277797 -1.297641 2.355386 -1.802696 -0.121260 0.308970 -0.202150 -0.139230 
1.333260 16.862710 -5.216340 -4.142423 -50.353467 4.784411 -15.405162 12.151006 4.692494 5.310896 -8.685665 -28.688705 -24.527463 14.894771 31.988846 0.413700 8.396458 1.681320 0.780090 0.606130 0.449910 18.224215 -10.176990 2.487618 4.320805 -1.486901 1.849145 1.335526 -5.827021 24.195908 -0.875490 -4.982642 2.787347 0.409750 0.245290 0.268370 -3.425536 -2.381411 -7.632468 -0.351081 0.401555 13.309956 -11.837509 2.191516 -0.870762 0.697594 -11.212903 -6.552089 -25.003432 21.957331 23.248312 1.834280 12.868690 -15.018070 -18.943606 9.289625 -3.473952 -29.429728 -2.002867 -1.253611 -55.360253 -40.467344 19.191255 -3.634491 3.528574 0.493260 0.102690 0.110900 0.379330 16.794703 -2.981058 4.567177 19.146215 -19.183088 -5.117721 -31.521337 13.268816 -1.774214 2.292992 -1.774102 -0.095350 0.311990 -0.223020 -0.140240 
1.424630 16.847170 -5.267550 -4.062506 -50.920024 2.940356 -15.434267 11.808547 5.178449 9.139238 -9.443919 -31.484017 -28.779797 17.629838 34.767683 0.743037 9.584283 1.265259 0.851990 0.692510 0.489190 18.226427 -10.025992 2.454059 4.913089 -1.583773 2.178152 1.492771 -6.155142 25.860939 -0.985541 -5.111591 2.728116 0.413700 0.148310 0.277950 -3.501593 -2.273679 -8.029440 -0.413019 0.038472 17.809831 -12.395130 2.255002 -1.383711 0.993623 -11.639076 -7.454413 -26.673908 21.613866 23.353820 1.967780 11.974890 -17.947970 -19.893515 7.565133 -3.541418 -27.166079 -3.043211 -1.249010 -58.596166 -42.606463 21.832552 -3.521180 3.573736 0.545890 0.009860 0.201240 0.396990 17.236669 -1.218697 5.636066 15.373294 -21.522864 -4.299514 -27.425397 17.103268 -1.982307 2.253658 -1.739383 -0.031460 0.285400 -0.275180 -0.124560 
